# xmcd CD database file
# Generated: sáb jul 6 20:43:28 2002 by KSCD
# 
# Track frame offsets:
#       150
#       23227
#       35819
#       50131
#       63573
#       71053
#       83385
#       101421
#       113612
#       132942
#       150350
#       166736
#       179027
#       193172
#       209242
#       223943
#       238862
#       250428
#       267649
#       287294
#
# Disc length: 4031 seconds
#
# Revision: 1
# Processed by: cddbd v1.4PL0 Copyright (c) Steve Scherf et al.
# Submitted via: Kscd 1.3.3
#
DISCID=350fbd14
DTITLE=Cat Stevens - Classic
DYEAR=1900
DGENRE=
TTITLE0=On the road to find out
TTITLE1=Moonshadow
TTITLE2=Sitting
TTITLE3=Silent sunlight
TTITLE4=The wind
TTITLE5=Trouble
TTITLE6=Peace train
TTITLE7=(Remember the days of the) Old schoolyard
TTITLE8=18th Avenue
TTITLE9=Where Do The Children Play?
TTITLE10=Father and son
TTITLE11=If tou want to sing out, sing out
TTITLE12=Ghost town
TTITLE13=Tuesday?s dead
TTITLE14=Morning has broken
TTITLE15=Katmandu
TTITLE16=Oh very young
TTITLE17=Novim?s nightmare
TTITLE18=Ruins
TTITLE19=New York Times
EXTD=
EXTT0=
EXTT1=
EXTT2=
EXTT3=
EXTT4=
EXTT5=
EXTT6=
EXTT7=
EXTT8=
EXTT9=
EXTT10=
EXTT11=
EXTT12=
EXTT13=
EXTT14=
EXTT15=
EXTT16=
EXTT17=
EXTT18=
EXTT19=
PLAYORDER=
